<svg width="22" height="22" viewBox="0 0 22 22" fill="none" xmlns="http://www.w3.org/2000/svg">
<g clip-path="url(#clip0_2519_161)">
<path fill-rule="evenodd" clip-rule="evenodd" d="M3.22191 18.7783C2.20044 17.7568 1.39016 16.5442 0.837347 15.2095C0.284531 13.8749 1.07629e-08 12.4445 0 10.9999C-1.07629e-08 9.55534 0.284531 8.12491 0.837347 6.79029C1.39016 5.45568 2.20044 4.24301 3.22191 3.22154C4.24338 2.20007 5.45604 1.3898 6.79066 0.836981C8.12527 0.284165 9.55571 -0.000366222 11.0003 -0.000366211C12.4449 -0.0003662 13.8753 0.284165 15.2099 0.836981C16.5445 1.3898 17.7572 2.20007 18.7787 3.22154C20.8416 5.2845 22.0006 8.08246 22.0006 10.9999C22.0006 13.9174 20.8416 16.7153 18.7787 18.7783C16.7157 20.8412 13.9177 22.0002 11.0003 22.0002C8.08283 22.0002 5.28486 20.8412 3.22191 18.7783ZM8.29153 6.83367C8.09604 6.65151 7.83748 6.55234 7.57031 6.55705C7.30315 6.56177 7.04825 6.66999 6.8593 6.85894C6.67036 7.04788 6.56213 7.30278 6.55742 7.56995C6.5527 7.83711 6.65187 8.09568 6.83403 8.29117L9.54278 10.9999L6.83403 13.7087C6.73271 13.8031 6.65145 13.9169 6.59508 14.0434C6.53872 14.1699 6.50841 14.3065 6.50597 14.4449C6.50353 14.5834 6.529 14.721 6.58086 14.8494C6.63273 14.9778 6.70993 15.0944 6.80786 15.1923C6.90578 15.2903 7.02243 15.3675 7.15084 15.4193C7.27924 15.4712 7.41679 15.4967 7.55525 15.4942C7.69372 15.4918 7.83027 15.4615 7.95677 15.4051C8.08327 15.3488 8.19712 15.2675 8.29153 15.1662L11.0003 12.4574L13.709 15.1662C13.8034 15.2675 13.9173 15.3488 14.0438 15.4051C14.1703 15.4615 14.3068 15.4918 14.4453 15.4942C14.5838 15.4967 14.7213 15.4712 14.8497 15.4193C14.9781 15.3675 15.0948 15.2903 15.1927 15.1923C15.2906 15.0944 15.3678 14.9778 15.4197 14.8494C15.4716 14.721 15.497 14.5834 15.4946 14.4449C15.4922 14.3065 15.4618 14.1699 15.4055 14.0434C15.3491 13.9169 15.2679 13.8031 15.1665 13.7087L12.4578 10.9999L15.1665 8.29117C15.2679 8.19676 15.3491 8.08291 15.4055 7.95641C15.4618 7.82991 15.4922 7.69335 15.4946 7.55489C15.497 7.41642 15.4716 7.27888 15.4197 7.15047C15.3678 7.02206 15.2906 6.90542 15.1927 6.80749C15.0948 6.70956 14.9781 6.63236 14.8497 6.5805C14.7213 6.52863 14.5838 6.50316 14.4453 6.5056C14.3068 6.50805 14.1703 6.53835 14.0438 6.59472C13.9173 6.65108 13.8034 6.73235 13.709 6.83367L11.0003 9.54242L8.29153 6.83367Z" fill="#FF5851"/>
</g>
<defs>
<clipPath id="clip0_2519_161">
<rect width="22" height="22" fill="white"/>
</clipPath>
</defs>
</svg>
