<svg width="22" height="22" viewBox="0 0 22 22" fill="none" xmlns="http://www.w3.org/2000/svg">
<path fill-rule="evenodd" clip-rule="evenodd" d="M10.9993 0.916626C5.4306 0.916626 0.916016 5.43121 0.916016 11C0.916016 16.5687 5.4306 21.0833 10.9993 21.0833C16.5681 21.0833 21.0827 16.5687 21.0827 11C21.0827 5.43121 16.5681 0.916626 10.9993 0.916626ZM15.37 9.29496C15.4505 9.20296 15.5118 9.0958 15.5502 8.97978C15.5887 8.86376 15.6035 8.74121 15.5939 8.61936C15.5843 8.49751 15.5504 8.37881 15.4943 8.27024C15.4381 8.16168 15.3608 8.06544 15.2669 7.98719C15.173 7.90894 15.0644 7.85026 14.9475 7.8146C14.8306 7.77894 14.7077 7.76702 14.5862 7.77955C14.4646 7.79208 14.3467 7.82879 14.2395 7.88754C14.1323 7.94629 14.038 8.02587 13.962 8.12163L10.0203 12.8507L7.98077 10.8102C7.80788 10.6432 7.57633 10.5508 7.33598 10.5529C7.09563 10.555 6.86572 10.6514 6.69577 10.8214C6.52581 10.9913 6.4294 11.2212 6.42731 11.4616C6.42523 11.7019 6.51762 11.9335 6.6846 12.1064L9.4346 14.8564C9.52467 14.9464 9.6325 15.0167 9.75123 15.0627C9.86996 15.1087 9.99697 15.1295 10.1242 15.1237C10.2514 15.1179 10.376 15.0857 10.4901 15.0291C10.6041 14.9725 10.7051 14.8928 10.7867 14.795L15.37 9.29496Z" fill="#0073C0"/>
</svg>
