<svg width="24" height="24" viewBox="0 0 24 24" fill="none" xmlns="http://www.w3.org/2000/svg">
<path d="M9.26367 6.81817C9.26367 6.05945 9.55197 5.3318 10.0651 4.7953C10.5783 4.2588 11.2743 3.9574 12.0001 3.9574C12.7258 3.9574 13.4218 4.2588 13.935 4.7953C14.4482 5.3318 14.7365 6.05945 14.7365 6.81817C14.7365 7.57689 14.4482 8.30454 13.935 8.84104C13.4218 9.37754 12.7258 9.67894 12.0001 9.67894C11.2743 9.67894 10.5783 9.37754 10.0651 8.84104C9.55197 8.30454 9.26367 7.57689 9.26367 6.81817ZM12.0001 5.38922C11.8206 5.38922 11.6428 5.42618 11.477 5.49799C11.3112 5.5698 11.1605 5.67506 11.0336 5.80775C10.9066 5.94044 10.806 6.09796 10.7373 6.27133C10.6686 6.4447 10.6332 6.63052 10.6332 6.81817C10.6332 7.00582 10.6686 7.19164 10.7373 7.36501C10.806 7.53838 10.9066 7.6959 11.0336 7.82859C11.1605 7.96128 11.3112 8.06654 11.477 8.13835C11.6428 8.21016 11.8206 8.24712 12.0001 8.24712C12.3626 8.24712 12.7102 8.09657 12.9666 7.82859C13.2229 7.56061 13.3669 7.19715 13.3669 6.81817C13.3669 6.43919 13.2229 6.07573 12.9666 5.80775C12.7102 5.53977 12.3626 5.38922 12.0001 5.38922Z" fill="white" fill-opacity="0.7"/>
<path d="M16.1089 7.53408C16.1089 7.25204 16.162 6.97275 16.2653 6.71218C16.3685 6.45161 16.5198 6.21484 16.7106 6.01541C16.9014 5.81597 17.1278 5.65777 17.3771 5.54984C17.6263 5.4419 17.8935 5.38635 18.1632 5.38635C18.433 5.38635 18.7002 5.4419 18.9494 5.54984C19.1986 5.65777 19.4251 5.81597 19.6159 6.01541C19.8066 6.21484 19.958 6.45161 20.0612 6.71218C20.1644 6.97275 20.2176 7.25204 20.2176 7.53408C20.2176 8.10369 20.0011 8.64998 19.6159 9.05275C19.2306 9.45553 18.7081 9.68181 18.1632 9.68181C17.6184 9.68181 17.0959 9.45553 16.7106 9.05275C16.3253 8.64998 16.1089 8.10369 16.1089 7.53408ZM18.1632 6.81817C17.9816 6.81817 17.8074 6.8936 17.679 7.02786C17.5506 7.16211 17.4785 7.34421 17.4785 7.53408C17.4785 7.72395 17.5506 7.90604 17.679 8.0403C17.8074 8.17456 17.9816 8.24999 18.1632 8.24999C18.3448 8.24999 18.519 8.17456 18.6474 8.0403C18.7759 7.90604 18.848 7.72395 18.848 7.53408C18.848 7.34421 18.7759 7.16211 18.6474 7.02786C18.519 6.8936 18.3448 6.81817 18.1632 6.81817Z" fill="white" fill-opacity="0.7"/>
<path d="M5.83706 5.38635C5.29222 5.38635 4.76968 5.61263 4.38442 6.01541C3.99915 6.41818 3.78271 6.96447 3.78271 7.53408C3.78271 8.10369 3.99915 8.64998 4.38442 9.05275C4.76968 9.45553 5.29222 9.68181 5.83706 9.68181C6.38191 9.68181 6.90444 9.45553 7.28971 9.05275C7.67497 8.64998 7.89141 8.10369 7.89141 7.53408C7.89141 6.96447 7.67497 6.41818 7.28971 6.01541C6.90444 5.61263 6.38191 5.38635 5.83706 5.38635ZM5.15228 7.53408C5.15228 7.34421 5.22443 7.16211 5.35285 7.02786C5.48127 6.8936 5.65545 6.81817 5.83706 6.81817C6.01868 6.81817 6.19286 6.8936 6.32128 7.02786C6.4497 7.16211 6.52185 7.34421 6.52185 7.53408C6.52185 7.72395 6.4497 7.90604 6.32128 8.0403C6.19286 8.17456 6.01868 8.24999 5.83706 8.24999C5.65545 8.24999 5.48127 8.17456 5.35285 8.0403C5.22443 7.90604 5.15228 7.72395 5.15228 7.53408Z" fill="white" fill-opacity="0.7"/>
<path d="M6.88883 11.1136C6.64779 11.5487 6.52116 12.0427 6.52178 12.5455H3.78265V16.125C3.78254 16.4812 3.86715 16.8317 4.02885 17.1452C4.19056 17.4587 4.42429 17.7252 4.70901 17.9207C4.99373 18.1163 5.32049 18.2347 5.65988 18.2654C5.99927 18.2961 6.34064 18.2381 6.65326 18.0966C6.75461 18.5706 6.91348 19.023 7.11891 19.4454C6.59911 19.6648 6.03573 19.7474 5.47825 19.686C4.92077 19.6246 4.38623 19.4211 3.92158 19.0932C3.45694 18.7654 3.07639 18.3233 2.81337 17.8057C2.55035 17.2882 2.4129 16.7111 2.41309 16.125V12.5455C2.41309 12.1657 2.55738 11.8015 2.81422 11.533C3.07107 11.2645 3.41942 11.1136 3.78265 11.1136H6.88883Z" fill="white" fill-opacity="0.7"/>
<path d="M16.8813 19.4454C17.4011 19.6648 17.9645 19.7474 18.522 19.686C19.0795 19.6246 19.614 19.4211 20.0787 19.0932C20.5433 18.7654 20.9239 18.3233 21.1869 17.8057C21.4499 17.2882 21.5874 16.7111 21.5872 16.125V12.5455C21.5872 12.1657 21.4429 11.8015 21.186 11.533C20.9292 11.2645 20.5808 11.1136 20.2176 11.1136H17.1114C17.3443 11.5346 17.4785 12.0229 17.4785 12.5455H20.2176V16.125C20.2177 16.4812 20.1331 16.8317 19.9714 17.1452C19.8097 17.4587 19.576 17.7252 19.2913 17.9207C19.0065 18.1163 18.6798 18.2347 18.3404 18.2654C18.001 18.2961 17.6596 18.2381 17.347 18.0966C17.2443 18.5706 17.0868 19.023 16.8813 19.4454Z" fill="white" fill-opacity="0.7"/>
<path d="M9.26068 11.1136C8.89745 11.1136 8.54909 11.2645 8.29225 11.533C8.03541 11.8015 7.89111 12.1657 7.89111 12.5455V16.8409C7.89111 17.9801 8.32399 19.0727 9.09452 19.8783C9.86505 20.6838 10.9101 21.1364 11.9998 21.1364C13.0895 21.1364 14.1346 20.6838 14.9051 19.8783C15.6756 19.0727 16.1085 17.9801 16.1085 16.8409V12.5455C16.1085 12.1657 15.9642 11.8015 15.7074 11.533C15.4505 11.2645 15.1022 11.1136 14.7389 11.1136H9.26068ZM9.26068 12.5455H14.7389V16.8409C14.7389 17.6004 14.4504 18.3288 13.9367 18.8658C13.423 19.4029 12.7263 19.7046 11.9998 19.7046C11.2733 19.7046 10.5766 19.4029 10.063 18.8658C9.54926 18.3288 9.26068 17.6004 9.26068 16.8409V12.5455Z" fill="white" fill-opacity="0.7"/>
</svg>
