<svg width="18" height="18" viewBox="0 0 18 18" fill="none" xmlns="http://www.w3.org/2000/svg">
<path d="M8.98872 12.75C11.0565 12.75 12.7388 11.0677 12.7388 8.99997C12.7388 6.93221 11.0565 5.24992 8.98872 5.24992C6.9211 5.24992 5.23881 6.93221 5.23881 8.99997C5.23881 11.0677 6.9211 12.75 8.98872 12.75ZM8.98872 6.37492C10.4363 6.37492 11.6138 7.55252 11.6138 8.99997C11.6138 10.4474 10.4363 11.625 8.98872 11.625C7.54127 11.625 6.36381 10.4474 6.36381 8.99997C6.36381 7.55252 7.54127 6.37492 8.98872 6.37492Z" fill="white" fill-opacity="0.7"/>
<path d="M7.74164 18H10.2362C10.8362 18 11.3664 17.574 11.4969 16.9868L11.8126 15.5827C12.3272 15.3645 12.8177 15.0796 13.2782 14.7316L14.6455 15.1635C15.232 15.3457 15.8695 15.0967 16.1635 14.5717L17.4069 12.4216C17.7047 11.889 17.6042 11.2335 17.1661 10.821L16.1065 9.84677C16.1386 9.56099 16.1544 9.27754 16.1544 9C16.1544 8.72246 16.1386 8.43901 16.1072 8.15323L17.1609 7.18355C17.6042 6.76648 17.7054 6.11101 17.4107 5.58531L16.1596 3.42155C15.8695 2.90245 15.2305 2.65581 14.6476 2.83502L13.2782 3.26775C12.8177 2.91975 12.3272 2.6348 11.8126 2.41644L11.4962 1.01102C11.3664 0.425995 10.8362 0 10.2362 0H7.74164C7.14165 0 6.61142 0.425995 6.48096 1.01321L6.16524 2.41727C5.65067 2.63548 5.16013 2.92044 4.69967 3.26843L3.33242 2.83653C2.74437 2.65581 2.1084 2.90327 1.81438 3.42828L0.570866 5.57845C0.273136 6.11101 0.373661 6.76648 0.811741 7.17902L1.87137 8.15323C1.83992 8.43901 1.82413 8.72328 1.82413 9C1.82413 9.27672 1.83992 9.56099 1.87137 9.84677L0.816959 10.8158C0.815449 10.8173 0.813938 10.8188 0.811741 10.8203C0.373661 11.2327 0.272449 11.8883 0.567158 12.414L1.81823 14.5778C2.1084 15.0967 2.74588 15.345 3.33091 15.1635L4.70049 14.7307C5.16095 15.0787 5.65149 15.3637 6.16593 15.582L6.48247 16.9875C6.61142 17.574 7.14165 18 7.74164 18ZM13.1634 13.5442C13.0344 13.5442 12.9077 13.5884 12.8057 13.6725C12.2904 14.0963 11.7287 14.4233 11.1339 14.6423C10.9547 14.7082 10.8219 14.8605 10.7799 15.0465L10.3981 16.7415C10.381 16.8195 10.3127 16.875 10.2354 16.875H7.74096C7.66364 16.875 7.59539 16.8195 7.57891 16.743L7.19645 15.0465C7.15442 14.8605 7.02163 14.7082 6.84241 14.6423C6.24846 14.4233 5.68596 14.0963 5.1707 13.6725C5.02362 13.5509 4.82573 13.5119 4.64336 13.5698L2.99266 14.0911C2.91397 14.1158 2.82993 14.0865 2.79395 14.022L1.54288 11.8582C1.50539 11.7915 1.51899 11.7 1.57886 11.6415L2.8449 10.4775C2.98223 10.3515 3.04815 10.1647 3.0204 9.98026C2.97097 9.64806 2.94611 9.31805 2.94611 8.99931C2.94611 8.68044 2.97097 8.35043 3.0204 8.01823C3.04815 7.8338 2.98223 7.64772 2.8449 7.52097L1.57598 6.35394C1.51899 6.3008 1.50539 6.20769 1.54673 6.13353L2.79024 3.98323C2.83062 3.91196 2.91617 3.88353 2.99417 3.90825L4.64267 4.42873C4.82422 4.48654 5.02211 4.44754 5.16988 4.326C5.68514 3.90221 6.24695 3.57523 6.84173 3.35619C7.02094 3.29027 7.15374 3.13797 7.19562 2.95203L7.5774 1.25697C7.59621 1.18048 7.66446 1.125 7.74164 1.125H10.2362C10.3134 1.125 10.3817 1.18048 10.3981 1.25697L10.7807 2.95354C10.8226 3.13948 10.9554 3.29095 11.1346 3.3577C11.7287 3.57674 12.2912 3.90372 12.8057 4.32751C12.9534 4.44905 13.153 4.48723 13.3329 4.43024L14.9837 3.90894C15.0609 3.88504 15.1464 3.91347 15.1824 3.97801L16.4335 6.14095C16.471 6.20851 16.4574 6.30148 16.3952 6.35999L15.1306 7.52179C14.9934 7.64772 14.9274 7.83449 14.9551 8.01906C15.0047 8.35126 15.0294 8.68126 15.0294 9C15.0294 9.31874 15.0047 9.64874 14.9551 9.98094C14.9274 10.1655 14.9934 10.3515 15.1306 10.4782L16.3997 11.6452C16.4567 11.6985 16.4701 11.7915 16.4289 11.8658L15.1854 14.0159C15.1457 14.0872 15.0602 14.115 14.9815 14.0911L13.3329 13.5704C13.2774 13.5525 13.2204 13.5442 13.1634 13.5442Z" fill="white" fill-opacity="0.7"/>
</svg>
